# xmcd
#
# Track frame offsets: 
#        150
#        18525
#        36472
#        49470
#        64140
#        76727
#        97125
#        114755
#        135262
#        153962
#        168415
#        191427
#        209220
#        220670
#        243442
#        277072
#        292205
#
# Disc length: 4198 seconds
#
# Revision: 3
# Processed by: cddbd v1.5.2PL0 Copyright (c) Steve Scherf et al.
# Submitted via: ExactAudioCopy v0.99pb5
#
DISCID=01106411
DTITLE=Various Artist - The Blues Experience
DYEAR=1994
DGENRE=Blues
TTITLE0=Gary Moore/ Still Got The Blues (For You)
TTITLE1=Robbie Robertson/ Somewhere Down The Crazy River
TTITLE2=Fleetwood Mac/ Black Magic Woman
TTITLE3=Chicken Shack/ I'd Rather Go Blind
TTITLE4=J.J.Cale/ Cocaine
TTITLE5=Joe Cocker/ Don't Let Me Be Misunderstood
TTITLE6=The Robert Cray Band/ I Wonder
TTITLE7=The Commitments/ Try A Little Tenderness
TTITLE8=Santana/ She's Not There
TTITLE9=Canned Heat/ On The Road Again
TTITLE10=Chris Rea/ Nineties Blues
TTITLE11=Tony Joe White/ Steamy Windows
TTITLE12=Rufus Thomas/ Walking The Dog
TTITLE13=George Thoroughgood/ Who Do You Love (Live)
TTITLE14=Jimi Hendrix/ Red House (Live)
TTITLE15=Thin Lizzy featuring Gary Moore/ Parisienne Walkways
TTITLE16=Eric Burdon and The Animals/ St. James Infirmary
EXTD=
EXTT0=
EXTT1=
EXTT2=
EXTT3=
EXTT4=
EXTT5=
EXTT6=
EXTT7=
EXTT8=
EXTT9=
EXTT10=
EXTT11=
EXTT12=
EXTT13=
EXTT14=
EXTT15=
EXTT16=
PLAYORDER=
